<svg width="382" height="74" viewBox="0 0 382 74" fill="none" xmlns="http://www.w3.org/2000/svg">
<path d="M0.324219 72V0.417969H30.7441C38.3939 0.417969 43.944 1.06901 47.3945 2.37109C50.8776 3.64062 53.6608 5.91927 55.7441 9.20703C57.8275 12.4948 58.8691 16.2546 58.8691 20.4863C58.8691 25.8574 57.2904 30.3008 54.1328 33.8164C50.9753 37.2995 46.2552 39.4967 39.9727 40.4082C43.0977 42.2311 45.6693 44.2331 47.6875 46.4141C49.7383 48.5951 52.4889 52.4688 55.9395 58.0352L64.6797 72H47.3945L36.9453 56.4238C33.2344 50.8574 30.6953 47.3581 29.3281 45.9258C27.9609 44.4609 26.5124 43.4681 24.9824 42.9473C23.4525 42.3939 21.0273 42.1172 17.707 42.1172H14.7773V72H0.324219ZM14.7773 30.6914H25.4707C32.4043 30.6914 36.7337 30.3984 38.459 29.8125C40.1842 29.2266 41.5352 28.2174 42.5117 26.7852C43.4883 25.3529 43.9766 23.5625 43.9766 21.4141C43.9766 19.0052 43.3255 17.0684 42.0234 15.6035C40.7539 14.1061 38.9473 13.1621 36.6035 12.7715C35.4316 12.6087 31.916 12.5273 26.0566 12.5273H14.7773V30.6914ZM67.6094 57.2051L81.3789 55.1055C81.9648 57.7747 83.153 59.8092 84.9434 61.209C86.7337 62.5762 89.2402 63.2598 92.4629 63.2598C96.0111 63.2598 98.6803 62.6087 100.471 61.3066C101.675 60.3952 102.277 59.1745 102.277 57.6445C102.277 56.6029 101.952 55.7402 101.301 55.0566C100.617 54.4056 99.0872 53.8034 96.7109 53.25C85.6432 50.8086 78.6283 48.5788 75.666 46.5605C71.5645 43.7611 69.5137 39.8711 69.5137 34.8906C69.5137 30.3984 71.2878 26.6224 74.8359 23.5625C78.3841 20.5026 83.8854 18.9727 91.3398 18.9727C98.4362 18.9727 103.71 20.1283 107.16 22.4395C110.611 24.7507 112.987 28.1686 114.289 32.6934L101.35 35.0859C100.796 33.0677 99.7383 31.5215 98.1758 30.4473C96.6458 29.373 94.4486 28.8359 91.584 28.8359C87.9707 28.8359 85.3828 29.3405 83.8203 30.3496C82.7786 31.0658 82.2578 31.9935 82.2578 33.1328C82.2578 34.1094 82.7135 34.9395 83.625 35.623C84.862 36.5345 89.1263 37.8203 96.418 39.4805C103.742 41.1406 108.853 43.1751 111.75 45.584C114.615 48.0254 116.047 51.4271 116.047 55.7891C116.047 60.5417 114.061 64.627 110.09 68.0449C106.118 71.4629 100.243 73.1719 92.4629 73.1719C85.3991 73.1719 79.8001 71.7396 75.666 68.875C71.5645 66.0104 68.8789 62.1204 67.6094 57.2051ZM173.322 35.4766L159.797 37.918C159.341 35.2161 158.299 33.1816 156.672 31.8145C155.077 30.4473 152.993 29.7637 150.422 29.7637C147.004 29.7637 144.27 30.9518 142.219 33.3281C140.201 35.6719 139.191 39.6107 139.191 45.1445C139.191 51.2969 140.217 55.6426 142.268 58.1816C144.351 60.7207 147.134 61.9902 150.617 61.9902C153.221 61.9902 155.354 61.2578 157.014 59.793C158.674 58.2956 159.846 55.7402 160.529 52.127L174.006 54.4219C172.606 60.6068 169.921 65.278 165.949 68.4355C161.978 71.5931 156.656 73.1719 149.982 73.1719C142.398 73.1719 136.343 70.7793 131.818 65.9941C127.326 61.209 125.08 54.5846 125.08 46.1211C125.08 37.5599 127.342 30.903 131.867 26.1504C136.392 21.3652 142.512 18.9727 150.227 18.9727C156.542 18.9727 161.555 20.3398 165.266 23.0742C169.009 25.776 171.695 29.9102 173.322 35.4766ZM184.26 72V1.00391H198.713V59.9395H234.65V72H184.26ZM244.904 13.1133V0.417969H258.625V13.1133H244.904ZM244.904 72V20.1445H258.625V72H244.904ZM319.904 72H306.184V45.5352C306.184 39.9362 305.891 36.3229 305.305 34.6953C304.719 33.0352 303.758 31.7493 302.424 30.8379C301.122 29.9264 299.543 29.4707 297.688 29.4707C295.311 29.4707 293.179 30.1217 291.291 31.4238C289.403 32.7259 288.101 34.4512 287.385 36.5996C286.701 38.748 286.359 42.7194 286.359 48.5137V72H272.639V20.1445H285.383V27.7617C289.908 21.9023 295.604 18.9727 302.473 18.9727C305.5 18.9727 308.267 19.526 310.773 20.6328C313.28 21.707 315.168 23.0905 316.438 24.7832C317.74 26.4759 318.635 28.3965 319.123 30.5449C319.644 32.6934 319.904 35.7695 319.904 39.7734V72ZM333.381 72V0.417969H347.102V38.4062L363.166 20.1445H380.061L362.336 39.0898L381.33 72H366.535L353.498 48.709L347.102 55.3984V72H333.381Z" fill="#D8DBE1"/>
</svg>
